<svg width="293" height="76" viewBox="0 0 293 76" fill="none" xmlns="http://www.w3.org/2000/svg">
<path d="M98.9639 53.9998C98.7239 53.9998 98.5079 53.9158 98.3159 53.7478C98.1479 53.5558 98.0639 53.3398 98.0639 53.0998V34.4518H91.6559C91.4159 34.4518 91.1999 34.3678 91.0079 34.1998C90.8399 34.0078 90.7559 33.7918 90.7559 33.5518V29.6998C90.7559 29.4358 90.8399 29.2198 91.0079 29.0518C91.1999 28.8838 91.4159 28.7998 91.6559 28.7998H111.024C111.288 28.7998 111.504 28.8838 111.672 29.0518C111.84 29.2198 111.924 29.4358 111.924 29.6998V33.5518C111.924 33.8158 111.84 34.0318 111.672 34.1998C111.504 34.3678 111.288 34.4518 111.024 34.4518H104.616V53.0998C104.616 53.3398 104.532 53.5558 104.364 53.7478C104.196 53.9158 103.98 53.9998 103.716 53.9998H98.9639Z" fill="white"/>
<path d="M120.956 53.9998C120.716 53.9998 120.5 53.9158 120.308 53.7478C120.14 53.5558 120.056 53.3398 120.056 53.0998V29.6998C120.056 29.4358 120.14 29.2198 120.308 29.0518C120.5 28.8838 120.716 28.7998 120.956 28.7998H130.748C133.892 28.7998 136.34 29.5198 138.092 30.9598C139.868 32.3758 140.756 34.3918 140.756 37.0078C140.756 38.6878 140.36 40.1158 139.568 41.2918C138.776 42.4678 137.684 43.3678 136.292 43.9918L141.224 52.8478C141.296 52.9918 141.332 53.1238 141.332 53.2438C141.332 53.4358 141.248 53.6158 141.08 53.7838C140.936 53.9278 140.768 53.9998 140.576 53.9998H135.788C135.092 53.9998 134.6 53.6758 134.312 53.0278L130.208 45.1078H126.536V53.0998C126.536 53.3638 126.44 53.5798 126.248 53.7478C126.08 53.9158 125.864 53.9998 125.6 53.9998H120.956ZM130.676 39.9958C131.78 39.9958 132.62 39.7318 133.196 39.2038C133.772 38.6518 134.06 37.8958 134.06 36.9358C134.06 35.9758 133.772 35.2198 133.196 34.6678C132.644 34.0918 131.804 33.8038 130.676 33.8038H126.536V39.9958H130.676Z" fill="white"/>
<path d="M148.366 53.9998C148.174 53.9998 147.994 53.9278 147.826 53.7838C147.682 53.6158 147.61 53.4358 147.61 53.2438C147.61 53.0998 147.622 52.9918 147.646 52.9198L156.106 29.8078C156.178 29.5198 156.334 29.2798 156.574 29.0878C156.814 28.8958 157.126 28.7998 157.51 28.7998H162.838C163.222 28.7998 163.534 28.8958 163.774 29.0878C164.014 29.2798 164.17 29.5198 164.242 29.8078L172.666 52.9198L172.738 53.2438C172.738 53.4358 172.654 53.6158 172.486 53.7838C172.342 53.9278 172.162 53.9998 171.946 53.9998H167.518C166.942 53.9998 166.558 53.7478 166.366 53.2438L164.962 49.5718H155.35L153.982 53.2438C153.79 53.7478 153.394 53.9998 152.794 53.9998H148.366ZM163.522 44.3878L160.174 34.8838L156.826 44.3878H163.522Z" fill="white"/>
<path d="M181.336 53.9998C181.096 53.9998 180.88 53.9158 180.688 53.7478C180.52 53.5558 180.436 53.3398 180.436 53.0998V29.6998C180.436 29.4358 180.52 29.2198 180.688 29.0518C180.88 28.8838 181.096 28.7998 181.336 28.7998H192.316C195.34 28.7998 197.584 29.4238 199.048 30.6718C200.536 31.8958 201.28 33.6478 201.28 35.9278C201.28 37.1278 200.968 38.1478 200.344 38.9878C199.744 39.8038 199.06 40.4038 198.292 40.7878C199.276 41.2438 200.104 41.9758 200.776 42.9838C201.448 43.9918 201.784 45.1198 201.784 46.3678C201.784 48.7678 200.992 50.6398 199.408 51.9838C197.824 53.3278 195.568 53.9998 192.64 53.9998H181.336ZM191.596 38.8078C192.556 38.8078 193.288 38.5678 193.792 38.0878C194.296 37.5838 194.548 36.9238 194.548 36.1078C194.548 35.3158 194.296 34.6798 193.792 34.1998C193.288 33.7198 192.556 33.4798 191.596 33.4798H186.916V38.8078H191.596ZM191.92 49.3198C192.904 49.3198 193.672 49.0318 194.224 48.4558C194.776 47.8798 195.052 47.1838 195.052 46.3678C195.052 45.5038 194.776 44.7958 194.224 44.2438C193.672 43.6678 192.904 43.3798 191.92 43.3798H186.916V49.3198H191.92Z" fill="white"/>
<path d="M211.543 53.9998C211.303 53.9998 211.087 53.9158 210.895 53.7478C210.727 53.5558 210.643 53.3398 210.643 53.0998V29.6998C210.643 29.4358 210.727 29.2198 210.895 29.0518C211.087 28.8838 211.303 28.7998 211.543 28.7998H216.367C216.631 28.7998 216.847 28.8838 217.015 29.0518C217.207 29.2198 217.303 29.4358 217.303 29.6998V53.0998C217.303 53.3638 217.207 53.5798 217.015 53.7478C216.847 53.9158 216.631 53.9998 216.367 53.9998H211.543Z" fill="white"/>
<path d="M225.735 53.9998C225.543 53.9998 225.363 53.9278 225.195 53.7838C225.051 53.6158 224.979 53.4358 224.979 53.2438C224.979 53.0998 224.991 52.9918 225.015 52.9198L233.475 29.8078C233.547 29.5198 233.703 29.2798 233.943 29.0878C234.183 28.8958 234.495 28.7998 234.879 28.7998H240.207C240.591 28.7998 240.903 28.8958 241.143 29.0878C241.383 29.2798 241.539 29.5198 241.611 29.8078L250.035 52.9198L250.107 53.2438C250.107 53.4358 250.023 53.6158 249.855 53.7838C249.711 53.9278 249.531 53.9998 249.315 53.9998H244.887C244.311 53.9998 243.927 53.7478 243.735 53.2438L242.331 49.5718H232.719L231.351 53.2438C231.159 53.7478 230.763 53.9998 230.163 53.9998H225.735ZM240.891 44.3878L237.543 34.8838L234.195 44.3878H240.891Z" fill="white"/>
<path d="M258.705 53.9998C258.465 53.9998 258.249 53.9158 258.057 53.7478C257.889 53.5558 257.805 53.3398 257.805 53.0998V29.6998C257.805 29.4358 257.889 29.2198 258.057 29.0518C258.249 28.8838 258.465 28.7998 258.705 28.7998H262.521C263.121 28.7998 263.529 29.0278 263.745 29.4838L272.529 43.3078V29.6998C272.529 29.4358 272.613 29.2198 272.781 29.0518C272.973 28.8838 273.189 28.7998 273.429 28.7998H277.749C278.013 28.7998 278.229 28.8838 278.397 29.0518C278.565 29.2198 278.649 29.4358 278.649 29.6998V53.0638C278.649 53.3278 278.565 53.5558 278.397 53.7478C278.229 53.9158 278.013 53.9998 277.749 53.9998H273.897C273.369 53.9998 272.973 53.7718 272.709 53.3158L263.925 39.9958V53.0998C263.925 53.3398 263.841 53.5558 263.673 53.7478C263.505 53.9158 263.289 53.9998 263.025 53.9998H258.705Z" fill="white"/>
<path d="M38 76C17.046 76 0 58.9534 0 38.0014C0 17.0494 17.046 0 38 0C58.954 0 76 17.0466 76 38.0014C76 58.9561 58.954 76 38 76ZM38 3.03812C28.7306 3.04836 19.8439 6.73526 13.2894 13.2899C6.73501 19.8446 3.04825 28.7317 3.03801 38.0014C3.04898 47.2706 6.73607 56.157 13.2904 62.711C19.8448 69.2651 28.7311 72.9516 38 72.9619C47.2689 72.9516 56.1552 69.2651 62.7096 62.711C69.2639 56.157 72.951 47.2706 72.962 38.0014C72.9518 28.7317 69.265 19.8446 62.7106 13.2899C56.1561 6.73526 47.2694 3.04836 38 3.03812ZM34.1003 65.5185C30.9049 61.9805 30.9049 58.1055 30.9049 51.6812V50.6952C30.9049 44.3428 30.2337 39.7939 21.5561 38.8769C21.3446 38.8546 21.1487 38.7553 21.0056 38.5979C20.8625 38.4406 20.7822 38.2361 20.78 38.0235C20.7798 37.9043 20.8042 37.7863 20.8517 37.677C20.8992 37.5677 20.9688 37.4694 21.0562 37.3882C21.1856 37.2336 21.3695 37.1346 21.5699 37.112C30.2475 36.1896 30.9187 31.6296 30.9187 25.291V24.3077C30.9187 17.8835 30.9187 14.0057 34.1169 10.4622C35.7639 8.67859 37.855 7.36425 40.1763 6.65349C39.461 6.60377 38.7429 6.57063 38.0138 6.57063C33.8859 6.56881 29.7981 7.38055 25.9841 8.95945C22.17 10.5384 18.7045 12.8535 15.7857 15.7724C12.8668 18.6914 10.5518 22.157 8.97294 25.9712C7.39409 29.7854 6.58238 33.8733 6.5842 38.0014C6.5842 46.3337 9.89406 54.3247 15.7857 60.2165C21.6773 66.1083 29.668 69.4183 38 69.4183C38.7319 69.4183 39.4555 69.3852 40.1736 69.3355C37.8466 68.6241 35.7505 67.3068 34.1003 65.5185ZM45.2084 7.4213L44.8576 7.46549C40.7729 8.13112 38.8672 12.8209 38.8672 22.1562V22.8577C38.8672 28.7379 38.8672 34.3474 33.1999 37.17C33.0422 37.2436 32.9087 37.3606 32.8152 37.5074C32.7217 37.6542 32.6721 37.8246 32.6721 37.9986C32.6721 38.1727 32.7217 38.3431 32.8152 38.4899C32.9087 38.6366 33.0422 38.7537 33.1999 38.8272C38.8672 41.6527 38.8672 47.2594 38.8672 53.1395V53.841C38.8672 63.1708 40.7701 67.8578 44.8466 68.5317L45.2056 68.5787C52.0948 66.9532 58.2335 63.0496 62.6275 57.5C67.0214 51.9504 69.4134 45.08 69.4158 38.0014C69.4151 30.9225 67.0242 24.0511 62.6306 18.5009C58.2369 12.9506 52.098 9.04653 45.2084 7.4213Z" fill="white"/>
</svg>
